<svg width="136" height="41" viewBox="0 0 136 41" fill="none" xmlns="http://www.w3.org/2000/svg">
<path d="M56.1957 29.6382C54.7078 29.6382 53.3938 29.387 52.2537 28.8845C51.1136 28.3628 50.215 27.6285 49.558 26.6817C48.901 25.7155 48.5629 24.5464 48.5436 23.1744H52.4566C52.4952 24.1213 52.8334 24.9232 53.4711 25.5802C54.1281 26.2179 55.0266 26.5367 56.1667 26.5367C57.1522 26.5367 57.9348 26.3048 58.5145 25.8411C59.0942 25.358 59.3841 24.7203 59.3841 23.928C59.3841 23.0971 59.1232 22.4498 58.6015 21.986C58.0991 21.5223 57.4227 21.1454 56.5725 20.8556C55.7223 20.5657 54.8141 20.2566 53.8479 19.9281C52.2827 19.387 51.0846 18.6913 50.2537 17.8411C49.4421 16.9909 49.0363 15.8604 49.0363 14.4498C49.017 13.2518 49.2972 12.2276 49.8769 11.3774C50.4759 10.5078 51.2875 9.84114 52.3117 9.37737C53.3358 8.89428 54.5145 8.65274 55.8479 8.65274C57.2005 8.65274 58.3889 8.89428 59.4131 9.37737C60.4566 9.86046 61.2681 10.5368 61.8479 11.4063C62.4469 12.2759 62.7657 13.3097 62.8044 14.5078H58.8334C58.814 13.7928 58.5339 13.1648 57.9928 12.6237C57.4711 12.0634 56.7368 11.7832 55.7899 11.7832C54.9783 11.7638 54.2923 11.9667 53.7319 12.3919C53.1909 12.7976 52.9203 13.3967 52.9203 14.1889C52.9203 14.8653 53.1329 15.4063 53.558 15.8121C53.9831 16.1986 54.5629 16.5271 55.2972 16.7976C56.0314 17.0682 56.872 17.358 57.8189 17.6672C58.8237 18.015 59.7416 18.4208 60.5725 18.8846C61.4034 19.3483 62.0701 19.9667 62.5725 20.7396C63.0749 21.4933 63.3261 22.4691 63.3261 23.6672C63.3261 24.73 63.0556 25.7155 62.5145 26.6237C61.9735 27.5319 61.1715 28.2662 60.1087 28.8266C59.0459 29.3676 57.7416 29.6382 56.1957 29.6382ZM66.4762 29.2903V8.42085H70.1864V17.1165C70.6695 16.3242 71.3168 15.7059 72.1284 15.2614C72.9593 14.7976 73.9062 14.5658 74.969 14.5658C76.7467 14.5658 78.1187 15.1261 79.0849 16.2469C80.0704 17.3677 80.5631 19.0102 80.5631 21.1744V29.2903H76.882V21.5223C76.882 20.2855 76.6308 19.3387 76.1284 18.6817C75.6453 18.0247 74.8723 17.6962 73.8095 17.6962C72.7661 17.6962 71.8965 18.0633 71.2009 18.7976C70.5245 19.5319 70.1864 20.5561 70.1864 21.8701V29.2903H66.4762ZM91.0094 29.6382C89.6181 29.6382 88.3621 29.3193 87.2413 28.6817C86.1399 28.044 85.2607 27.1647 84.6037 26.044C83.966 24.9039 83.6471 23.5899 83.6471 22.102C83.6471 20.614 83.9756 19.3097 84.6326 18.1889C85.2897 17.0488 86.1689 16.16 87.2703 15.5223C88.3911 14.8846 89.6471 14.5658 91.0384 14.5658C92.4104 14.5658 93.6471 14.8846 94.7486 15.5223C95.8693 16.16 96.7485 17.0488 97.3862 18.1889C98.0432 19.3097 98.3717 20.614 98.3717 22.102C98.3717 23.5899 98.0432 24.9039 97.3862 26.044C96.7485 27.1647 95.8693 28.044 94.7486 28.6817C93.6278 29.3193 92.3814 29.6382 91.0094 29.6382ZM91.0094 26.4208C91.9756 26.4208 92.8162 26.0633 93.5312 25.3483C94.2461 24.614 94.6036 23.5319 94.6036 22.102C94.6036 20.672 94.2461 19.5996 93.5312 18.8846C92.8162 18.1503 91.9853 17.7831 91.0384 17.7831C90.0529 17.7831 89.2027 18.1503 88.4877 18.8846C87.7921 19.5996 87.4442 20.672 87.4442 22.102C87.4442 23.5319 87.7921 24.614 88.4877 25.3483C89.2027 26.0633 90.0433 26.4208 91.0094 26.4208ZM101.689 35.6671V14.9136H104.993L105.399 16.9715C105.863 16.3339 106.472 15.7735 107.225 15.2904C107.998 14.8073 108.993 14.5658 110.211 14.5658C111.563 14.5658 112.771 14.8943 113.834 15.5513C114.897 16.2083 115.737 17.1068 116.356 18.2469C116.974 19.387 117.283 20.6817 117.283 22.1309C117.283 23.5802 116.974 24.8749 116.356 26.015C115.737 27.1358 114.897 28.0246 113.834 28.6817C112.771 29.3193 111.563 29.6382 110.211 29.6382C109.129 29.6382 108.182 29.4353 107.37 29.0295C106.559 28.6237 105.902 28.0536 105.399 27.3193V35.6671H101.689ZM109.428 26.3918C110.607 26.3918 111.583 25.9957 112.356 25.2034C113.129 24.4111 113.515 23.387 113.515 22.1309C113.515 20.8749 113.129 19.8411 112.356 19.0295C111.583 18.2179 110.607 17.8121 109.428 17.8121C108.23 17.8121 107.245 18.2179 106.472 19.0295C105.718 19.8218 105.341 20.8459 105.341 22.102C105.341 23.358 105.718 24.3918 106.472 25.2034C107.245 25.9957 108.23 26.3918 109.428 26.3918ZM121.092 35.6671L124.426 28.3338H123.556L117.962 14.9136H121.991L126.02 25.0295L130.223 14.9136H134.165L125.034 35.6671H121.092Z" fill="#201F22"/>
<mask id="mask0_14_2405" style="mask-type:alpha" maskUnits="userSpaceOnUse" x="0" y="0" width="37" height="41">
<path d="M14.8369 1.17144C16.9856 -0.0691088 19.6329 -0.0691105 21.7816 1.17144L33.1461 7.73277C35.2948 8.97332 36.6185 11.266 36.6185 13.7471V26.8697C36.6185 29.3508 35.2948 31.6434 33.1462 32.884L21.7816 39.4453C19.6329 40.6859 16.9856 40.6859 14.8369 39.4453L3.47235 32.884C1.32365 31.6434 0 29.3508 0 26.8697V13.7471C0 11.266 1.32365 8.97332 3.47235 7.73277L14.8369 1.17144Z" fill="#C4C4C4"/>
</mask>
<g mask="url(#mask0_14_2405)">
<rect width="23.1744" height="23.1744" transform="matrix(0.866025 0.5 -0.866025 0.5 18.3095 -1.17798)" fill="#CFCFCF"/>
<rect width="21.3236" height="21.3236" transform="matrix(0.866025 0.5 -2.20305e-08 1 -0.157898 10.5769)" fill="#767676"/>
<rect width="21.3236" height="21.3236" transform="matrix(0.866025 -0.5 2.20305e-08 1 18.3095 21.2415)" fill="#201F22"/>
</g>
</svg>
